<mxGraphModel><root><mxCell id="0"/><mxCell id="1" parent="0"/><mxCell id="2" value="Director" style="whiteSpace=wrap;strokeWidth=2;verticalAlign=top;" vertex="1" parent="1"><mxGeometry x="1390" y="14" width="156" height="272" as="geometry"/></mxCell><mxCell id="3" value="Reports" style="whiteSpace=wrap;strokeWidth=2;" vertex="1" parent="1"><mxGeometry x="1433" y="49" width="69" height="34" as="geometry"/></mxCell><mxCell id="4" value="Insights" style="whiteSpace=wrap;strokeWidth=2;" vertex="1" parent="1"><mxGeometry x="1434" y="133" width="69" height="34" as="geometry"/></mxCell><mxCell id="5" value="Performance" style="whiteSpace=wrap;strokeWidth=2;" vertex="1" parent="1"><mxGeometry x="1415" y="217" width="106" height="34" as="geometry"/></mxCell><mxCell id="6" value="Data Management" style="whiteSpace=wrap;strokeWidth=2;verticalAlign=top;" vertex="1" parent="1"><mxGeometry x="992" y="14" width="177" height="272" as="geometry"/></mxCell><mxCell id="7" value="Hotel Table" style="whiteSpace=wrap;strokeWidth=2;" vertex="1" parent="1"><mxGeometry x="1032" y="49" width="97" height="34" as="geometry"/></mxCell><mxCell id="8" value="Customer Table" style="whiteSpace=wrap;strokeWidth=2;" vertex="1" parent="1"><mxGeometry x="1018" y="133" width="126" height="34" as="geometry"/></mxCell><mxCell id="9" value="Employee Table" style="whiteSpace=wrap;strokeWidth=2;" vertex="1" parent="1"><mxGeometry x="1017" y="217" width="127" height="34" as="geometry"/></mxCell><mxCell id="10" value="Database" style="whiteSpace=wrap;strokeWidth=2;verticalAlign=top;" vertex="1" parent="1"><mxGeometry x="706" width="177" height="286" as="geometry"/></mxCell><mxCell id="11" value="Hotel Table" style="whiteSpace=wrap;strokeWidth=2;" vertex="1" parent="1"><mxGeometry x="747" y="49" width="97" height="34" as="geometry"/></mxCell><mxCell id="12" value="Customer Table" style="whiteSpace=wrap;strokeWidth=2;" vertex="1" parent="1"><mxGeometry x="732" y="133" width="126" height="34" as="geometry"/></mxCell><mxCell id="13" value="Employee Table" style="whiteSpace=wrap;strokeWidth=2;" vertex="1" parent="1"><mxGeometry x="731" y="217" width="127" height="34" as="geometry"/></mxCell><mxCell id="14" value="Data Source" style="whiteSpace=wrap;strokeWidth=2;verticalAlign=top;" vertex="1" parent="1"><mxGeometry width="455" height="286" as="geometry"/></mxCell><mxCell id="15" value="Database" style="whiteSpace=wrap;strokeWidth=2;" vertex="1" parent="1"><mxGeometry x="349" y="49" width="81" height="34" as="geometry"/></mxCell><mxCell id="16" value="Hotels System" style="whiteSpace=wrap;strokeWidth=2;" vertex="1" parent="1"><mxGeometry x="25" y="133" width="116" height="34" as="geometry"/></mxCell><mxCell id="17" value="Database" style="whiteSpace=wrap;strokeWidth=2;" vertex="1" parent="1"><mxGeometry x="349" y="133" width="81" height="34" as="geometry"/></mxCell><mxCell id="18" value="Database" style="whiteSpace=wrap;strokeWidth=2;" vertex="1" parent="1"><mxGeometry x="349" y="217" width="81" height="34" as="geometry"/></mxCell><mxCell id="19" value="Hotel Information" style="curved=1;startArrow=none;endArrow=block;exitX=0.780654280839491;exitY=-0.014705882352941176;entryX=-0.0013503086419753086;entryY=0.4852941176470588;" edge="1" parent="1" source="16" target="15"><mxGeometry relative="1" as="geometry"><Array as="points"><mxPoint x="245" y="66"/></Array></mxGeometry></mxCell><mxCell id="20" value="Customer Information" style="curved=1;startArrow=none;endArrow=block;exitX=0.9962284482758621;exitY=0.4852941176470588;entryX=-0.0013503086419753086;entryY=0.4852941176470588;" edge="1" parent="1" source="16" target="17"><mxGeometry relative="1" as="geometry"><Array as="points"/></mxGeometry></mxCell><mxCell id="21" value="Employee Information" style="curved=1;startArrow=none;endArrow=block;exitX=0.780654280839491;exitY=0.9852941176470589;entryX=-0.0013503086419753086;entryY=0.4852941176470588;" edge="1" parent="1" source="16" target="18"><mxGeometry relative="1" as="geometry"><Array as="points"><mxPoint x="245" y="234"/></Array></mxGeometry></mxCell><mxCell id="22" value="Hotel Name" style="curved=1;startArrow=none;endArrow=block;exitX=0.9957561728395061;exitY=0.1310614101059232;entryX=-0.0034230025773195876;entryY=0.17242083242604292;" edge="1" parent="1" source="15" target="11"><mxGeometry relative="1" as="geometry"><Array as="points"><mxPoint x="455" y="46"/><mxPoint x="706" y="46"/></Array></mxGeometry></mxCell><mxCell id="23" value="Number of Rooms, Facilities" style="curved=1;startArrow=none;endArrow=block;exitX=0.9957561728395061;exitY=0.8940241648099078;entryX=-0.0034230025773195876;entryY=0.8463017544405389;" edge="1" parent="1" source="15" target="11"><mxGeometry relative="1" as="geometry"><Array as="points"><mxPoint x="455" y="88"/><mxPoint x="706" y="88"/></Array></mxGeometry></mxCell><mxCell id="24" value="Name, Contact Information" style="curved=1;startArrow=none;endArrow=block;exitX=0.9957561728395061;exitY=0.4852941176470588;entryX=0.0009300595238095238;entryY=0.4852941176470588;" edge="1" parent="1" source="17" target="12"><mxGeometry relative="1" as="geometry"><Array as="points"/></mxGeometry></mxCell><mxCell id="25" value="Name, Position, Salary" style="curved=1;startArrow=none;endArrow=block;exitX=0.9957561728395061;exitY=0.4852941176470588;entryX=0.003014271653543307;entryY=0.4852941176470588;" edge="1" parent="1" source="18" target="13"><mxGeometry relative="1" as="geometry"><Array as="points"/></mxGeometry></mxCell><mxCell id="26" value="Update" style="curved=1;startArrow=none;endArrow=block;exitX=0.9935969716494846;exitY=0.4852941176470588;entryX=0.0018927190721649485;entryY=0.4852941176470588;" edge="1" parent="1" source="11" target="7"><mxGeometry relative="1" as="geometry"><Array as="points"/></mxGeometry></mxCell><mxCell id="27" value="Queries" style="curved=1;startArrow=none;endArrow=block;exitX=0.9994419642857143;exitY=0.4852941176470588;entryX=-0.002914186507936508;entryY=0.4852941176470588;" edge="1" parent="1" source="12" target="8"><mxGeometry relative="1" as="geometry"><Array as="points"/></mxGeometry></mxCell><mxCell id="28" value="Analysis" style="curved=1;startArrow=none;endArrow=block;exitX=1.005228838582677;exitY=0.4852941176470588;entryX=-0.0007997047244094488;entryY=0.4852941176470588;" edge="1" parent="1" source="13" target="9"><mxGeometry relative="1" as="geometry"><Array as="points"/></mxGeometry></mxCell><mxCell id="29" value="Create Reports" style="curved=1;startArrow=none;endArrow=block;exitX=0.998912693298969;exitY=0.4852941176470588;entryX=0.006567028985507246;entryY=0.4852941176470588;" edge="1" parent="1" source="7" target="3"><mxGeometry relative="1" as="geometry"><Array as="points"/></mxGeometry></mxCell><mxCell id="30" value="Generate Insights" style="curved=1;startArrow=none;endArrow=block;exitX=0.9955977182539683;exitY=0.4852941176470588;entryX=-0.007189764492753623;entryY=0.4852941176470588;" edge="1" parent="1" source="8" target="4"><mxGeometry relative="1" as="geometry"><Array as="points"/></mxGeometry></mxCell><mxCell id="31" value="Performance Evaluation" style="curved=1;startArrow=none;endArrow=block;exitX=1.0014148622047243;exitY=0.4852941176470588;entryX=0.0008107311320754717;entryY=0.4852941176470588;" edge="1" parent="1" source="9" target="5"><mxGeometry relative="1" as="geometry"><Array as="points"/></mxGeometry></mxCell></root></mxGraphModel>